#!OML:ASF F:\VICON\USERDATA\INSTALL\rory3\rory3.ASF
:FULLY-SPECIFIED
:DEGREES
1499
root 0.716694 15.7961 -3.45724 343.988 13.6623 3.33141
lowerback 18.1753 -3.35403 -3.297
upperback 10.991 -4.804 -1.31978
thorax 1.8104 -2.50721 1.22217
lowerneck -6.07319 -13.6511 -19.844
upperneck 14.2796 -18.364 12.7685
head 8.47652 -9.02109 5.26567
rclavicle -4.13472e-014 2.36554e-014
rhumerus -39.2733 56.8364 -91.7291
rradius 83.5876
rwrist 44.622
rhand -70.3651 46.983
rfingers 7.12502
rthumb -41.9511 22.3766
lclavicle -4.13472e-014 2.36554e-014
lhumerus -36.1244 -20.4408 85.2821
lradius 69.2387
lwrist 11.3269
lhand -35.5763 10.0494
lfingers 7.12502
lthumb -8.70096 39.8501
rfemur -76.8753 -34.0418 16.9093
rtibia 141.41
rfoot -3.36015 2.58051
rtoes 9.84507
lfemur -34.428 30.6761 -13.6032
ltibia 111.902
lfoot -7.71514 -16.5128
ltoes -40.0348
1500
root 0.71619 15.7912 -3.457 343.974 13.6968 3.34591
lowerback 18.2256 -3.36662 -3.35771
upperback 10.907 -4.834 -1.28038
thorax 1.70388 -2.52426 1.30912
lowerneck -6.21552 -13.4851 -19.6886
upperneck 14.694 -18.0901 12.385
head 8.53886 -8.90472 5.15291
rclavicle 3.54085e-015 -2.25621e-014
rhumerus -39.4975 56.9478 -91.8585
rradius 83.5944
rwrist 44.5254
rhand -70.3796 46.0714
rfingers 7.12502
rthumb -41.9647 21.4696
lclavicle 3.54085e-015 -2.25621e-014
lhumerus -36.2103 -20.4897 85.3609
lradius 69.2615
lwrist 11.2073
lhand -35.7789 10.0201
lfingers 7.12502
lthumb -8.89646 39.8125
rfemur -76.8793 -34.0397 16.8589
rtibia 141.434
rfoot -3.34877 2.57664
rtoes 9.83312
lfemur -34.6572 30.4334 -13.5933
ltibia 112.019
lfoot -6.70737 -16.8677
ltoes -39.6282
1501
root 0.716113 15.785 -3.45536 343.947 13.6909 3.32244
lowerback 18.2426 -3.35751 -3.35455
upperback 10.8449 -4.82433 -1.2393
thorax 1.63062 -2.51898 1.35316
lowerneck -6.43464 -13.3562 -19.4517
upperneck 15.2274 -17.8536 11.9008
head 8.64517 -8.80652 4.98206
rclavicle -4.94228e-014 5.31749e-014
rhumerus -39.5912 57.0338 -91.9074
rradius 83.5494
rwrist 44.2999
rhand -70.4061 45.3886
rfingers 7.12502
rthumb -41.9895 20.795
lclavicle -4.94228e-014 5.31749e-014
lhumerus -36.2752 -20.5669 85.4182
lradius 69.3073
lwrist 11.0664
lhand -35.8843 10.0063
lfingers 7.12502
lthumb -8.99815 39.7944
rfemur -76.8717 -33.9645 16.8449
rtibia 141.469
rfoot -3.38709 2.57246
rtoes 9.85616
lfemur -34.7833 30.1351 -13.4026
ltibia 112.213
lfoot -5.34842 -17.3412
ltoes -37.8117
1502
root 0.714203 15.7852 -3.45752 343.933 13.7007 3.293
lowerback 18.2612 -3.33838 -3.3301
upperback 10.8037 -4.79742 -1.21494
thorax 1.57484 -2.50371 1.36431
lowerneck -6.698 -13.2439 -19.2424
upperneck 15.7662 -17.65 11.5286
head 8.78314 -8.71679 4.84363
rclavicle -5.55355e-015 2.29099e-014
rhumerus -39.5339 56.9955 -91.8335
rradius 83.4882
rwrist 44.2149
rhand -70.2732 44.9951
rfingers 7.12502
rthumb -41.865 20.3599
lclavicle -5.55355e-015 2.29099e-014
lhumerus -36.2458 -20.7358 85.4335
lradius 69.3469
lwrist 10.918
lhand -35.9448 10.142
lfingers 7.12502
lthumb -9.05656 39.9276
rfemur -76.851 -33.9109 16.8948
rtibia 141.477
rfoot -3.43912 2.48854
rtoes 10.0533
lfemur -34.9231 29.8846 -13.1623
ltibia 112.443
lfoot -3.97279 -17.8331
ltoes -36.5889
1503
root 0.712893 15.7857 -3.46087 343.9 13.7594 3.27778
lowerback 18.3159 -3.32403 -3.30992
upperback 10.7607 -4.77822 -1.18993
thorax 1.4997 -2.49202 1.38212
lowerneck -6.91741 -13.0913 -19.1031
upperneck 16.2694 -17.4056 11.2607
head 8.9139 -8.60709 4.76012
rclavicle 4.72114e-016 1.13307e-014
rhumerus -39.5294 56.8899 -91.7633
rradius 83.455
rwrist 44.3243
rhand -70.1291 44.7418
rfingers 7.12502
rthumb -41.7299 20.0619
lclavicle 4.72114e-016 1.13307e-014
lhumerus -36.2282 -20.9487 85.4642
lradius 69.4124
lwrist 10.826
lhand -35.942 10.371
lfingers 7.12502
lthumb -9.05383 40.1566
rfemur -76.7758 -33.9607 16.8854
rtibia 141.479
rfoot -3.44305 2.42716
rtoes 10.2471
lfemur -35.1773 29.5616 -13.0649
ltibia 112.601
lfoot -2.77825 -18.249
ltoes -37.2222
1504
root 0.712036 15.784 -3.46133 343.873 13.8327 3.32634
lowerback 18.3584 -3.30943 -3.3467
upperback 10.7201 -4.76692 -1.18447
thorax 1.43728 -2.48655 1.41124
lowerneck -7.29267 -12.9028 -19.0223
upperneck 16.9081 -17.0988 11.0575
head 9.12287 -8.46194 4.70749
rclavicle 1.11816e-015 -1.37161e-014
rhumerus -39.5764 56.7826 -91.727
rradius 83.4722
rwrist 44.3718
rhand -69.9702 45.3162
rfingers 7.12502
rthumb -41.5808 20.5873
lclavicle 1.11816e-015 -1.37161e-014
lhumerus -36.2836 -21.1135 85.4948
lradius 69.5261
lwrist 10.7006
lhand -35.9481 10.4092
lfingers 7.12502
lthumb -9.05977 40.1946
rfemur -76.7448 -34.0405 16.761
rtibia 141.499
rfoot -3.39991 2.43497
rtoes 10.1508
lfemur -35.447 29.186 -13.1106
ltibia 112.682
lfoot -1.79011 -18.4611
ltoes -37.8507
1505
root 0.710206 15.7833 -3.464 343.849 13.8594 3.26468
lowerback 18.4125 -3.29451 -3.28369
upperback 10.6716 -4.74057 -1.13832
thorax 1.35406 -2.46984 1.42653
lowerneck -7.7931 -12.7571 -18.8885
upperneck 17.6808 -16.8185 10.7261
head 9.39093 -8.33266 4.59122
rclavicle 8.82604e-014 -1.82882e-014
rhumerus -39.6031 56.6635 -91.659
rradius 83.4884
rwrist 44.367
rhand -69.7547 43.7057
rfingers 7.12502
rthumb -41.3786 18.9109
lclavicle 8.82604e-014 -1.82882e-014
lhumerus -36.3482 -21.2393 85.5541
lradius 69.6536
lwrist 10.5141
lhand -36.0516 10.3568
lfingers 7.12502
lthumb -9.15955 40.1378
rfemur -76.7843 -34.0126 16.8675
rtibia 141.491
rfoot -3.35384 2.36032
rtoes 9.95257
lfemur -35.7678 28.8598 -12.9599
ltibia 112.752
lfoot -0.552986 -18.7959
ltoes -36.9976
